<svg xmlns="http://www.w3.org/2000/svg" xmlns:xlink="http://www.w3.org/1999/xlink" width="555" height="347" viewBox="0 0 555 347">
    <defs>
        <rect id="a" width="555" height="347" rx="6"/>
        <linearGradient id="b" x1="45.914%" x2="52.317%" y1="100%" y2="51.044%">
            <stop offset="0%" stop-color="#FFF"/>
            <stop offset="100%"/>
        </linearGradient>
    </defs>
    <g fill="none" fill-rule="evenodd">
        <mask id="c" fill="#fff">
            <use xlink:href="#a"/>
        </mask>
        <use fill="#1875F0" xlink:href="#a"/>
        <path fill="url(#b)" fill-rule="nonzero" d="M105-93.536c0-33.05 2.132-63.436 6.395-91.156 4.263-27.72 12.256-52.241 23.98-73.564 19.184-35.183 46.628-63.436 82.332-84.76C253.411-364.338 296.842-375 348-375s94.589 10.661 130.293 31.985c35.704 21.323 63.148 49.576 82.332 84.759 11.724 21.323 19.717 45.844 23.98 73.564 4.263 27.72 6.395 58.105 6.395 91.156v267.072c0 33.05-2.132 63.436-6.395 91.156-4.263 27.72-12.256 52.241-23.98 73.564-19.184 35.183-46.628 63.436-82.332 84.76C442.589 444.338 399.158 455 348 455s-94.589-10.661-130.293-31.985c-35.704-21.323-63.148-49.576-82.332-84.759-11.724-21.323-19.717-45.844-23.98-73.564-4.263-27.72-6.395-58.105-6.395-91.156V-93.536zm162.86 292.121c0 30.872 7.154 54.026 21.464 69.462 14.31 15.436 33.655 23.154 58.035 23.154 24.38 0 43.725-7.718 58.035-23.154 14.31-15.436 21.465-38.59 21.465-69.462v-317.768c0-30.872-7.155-54.026-21.465-69.462-14.31-15.436-33.655-23.154-58.035-23.154-24.38 0-43.725 7.718-58.035 23.154-14.31 15.436-21.465 38.59-21.465 69.462v317.768z" mask="url(#c)" opacity=".1" transform="rotate(20 348 40)"/>
        <g fill="#FFF" fill-rule="nonzero" mask="url(#c)">
            <path d="M178 195.137V152h5.179c1.438 0 2.877 1.438 2.877 2.876v9.145c1.899-.92 4.546-1.38 6.33-1.38 7.595 0 12.658 6.039 12.658 16.68 0 10.64-6.214 15.816-13.81 15.816H178zm14.385-25.997c-1.899 0-4.545.748-6.33 1.495v18.29h5.18c3.51 0 5.754-3.105 5.754-9.605s-1.094-10.18-4.604-10.18zm14.988 10.18c0-10.64 6.675-16.68 14.961-16.68 8.286 0 14.96 6.04 14.96 16.68S230.62 196 222.335 196c-8.286 0-14.96-6.04-14.96-16.68zm8.056 0c0 7.19 2.762 9.778 6.905 9.778 4.143 0 6.905-2.588 6.905-9.778s-2.762-9.778-6.905-9.778c-4.143 0-6.905 2.589-6.905 9.778zm24.943 0c0-10.64 6.675-16.68 14.96-16.68 8.287 0 14.961 6.04 14.961 16.68S263.62 196 255.333 196c-8.286 0-14.961-6.04-14.961-16.68zm8.056 0c0 7.19 2.762 9.778 6.905 9.778 4.143 0 6.905-2.588 6.905-9.778s-2.762-9.778-6.905-9.778c-4.143 0-6.905 2.589-6.905 9.778zm25.115 14.61v-4.43c0-1.15 1.15-2.875 2.877-2.875 3.395 0 2.704 1.38 6.732 1.38 3.05 0 5.006-1.84 5.006-3.566 0-2.933-3.625-3.393-6.387-3.393-5.639 0-8.228-4.084-8.228-8.57 0-5.062 5.294-9.835 10.76-9.835 5.467 0 9.955 2.07 9.955 2.07v3.509c0 1.15-1.151 2.875-2.302 2.875-1.841 0-3.165-1.38-7.077-1.38-1.381 0-3.28 1.15-3.28 2.99 0 1.726 1.899 2.071 4.315 2.071 5.524 0 10.3 4.544 10.3 10.008 0 6.902-5.524 11.216-12.141 11.216-6.732 0-10.53-2.07-10.53-2.07zm34.264-23.525v15.242c0 8.052 5.18 3.106 5.18 10.353-7.079 0-13.235 0-13.235-7.477V152h5.178c1.554 0 2.877 1.438 2.877 2.876v8.627H315v6.902h-7.193zM326.1 181.166c0 .173-.347 8.362 4.05 8.362 2.603 0 5.207-1.788 6.364-2.653v-23.01h8.1v31.718h-6.364c-1.157 0-1.736-.577-1.736-1.73v-.173c-2.72 1.614-5.843 2.768-8.678 2.768-6.48 0-9.836-3.806-9.836-15.34v-17.243h6.422c1.157 0 1.736.577 1.736 1.73l-.058 15.513v.058zM348.807 210v-46.135c1.967 0 3.703 0 5.092.23 2.256-.634 4.975-1.095 8.215-1.095 7.637 0 13.886 4.613 13.886 15.282s-5.67 18.166-13.307 18.166c-1.967 0-3.876-.52-5.786-1.673V210h-8.1zm8.1-39.618v17.82c1.736.807 3.009 1.73 5.092 1.73 3.529 0 5.901-5.133 5.901-11.65 0-6.516-2.256-9.054-5.786-9.054-2.025 0-5.207 1.154-5.207 1.154zM382.98 183.913l22.037-39.676-21.212 2.803zM381.281 162.877l-.143-15.42-21.149 2.509z"/>
        </g>
    </g>
</svg>
