<svg xmlns="http://www.w3.org/2000/svg" width="708" height="782" viewBox="0 0 708 782">
    <defs>
        <linearGradient id="a" x1="45.92%" x2="52.313%" y1="100%" y2="51.044%">
            <stop offset="0%" stop-color="#FFF"/>
            <stop offset="100%"/>
        </linearGradient>
    </defs>
    <path fill="url(#a)" fill-rule="nonzero" d="M849-253.166c0-63.155 4.07-121.216 12.21-174.185 8.14-52.968 23.404-99.825 45.79-140.57 36.632-67.23 89.035-121.216 157.21-161.961C1132.387-770.628 1215.316-791 1313-791s180.614 20.372 248.79 61.118c68.175 40.745 120.578 94.731 157.21 161.961 22.386 40.745 37.65 87.602 45.79 140.57 8.14 52.97 12.21 111.03 12.21 174.185v510.332c0 63.155-4.07 121.216-12.21 174.185-8.14 52.968-23.404 99.825-45.79 140.57-36.632 67.23-89.035 121.216-157.21 161.961C1493.613 774.628 1410.684 795 1313 795s-180.614-20.372-248.79-61.118C996.036 693.137 943.633 639.151 907 571.921c-22.386-40.745-37.65-87.602-45.79-140.57C853.07 378.38 849 320.32 849 257.166v-510.332zm310.89 558.592c0 58.982 13.68 103.219 41.04 132.71 27.36 29.49 64.346 44.236 110.96 44.236 46.613 0 83.6-14.745 110.96-44.236s41.04-73.728 41.04-132.71v-607.108c0-58.982-13.68-103.218-41.04-132.71-27.36-29.49-64.347-44.236-110.96-44.236-46.614 0-83.6 14.746-110.96 44.237-27.36 29.49-41.04 73.727-41.04 132.71v607.107z" opacity=".1" transform="rotate(20 947 -2073.69)"/>
</svg>
