<svg xmlns="http://www.w3.org/2000/svg" width="774" height="1560" viewBox="0 0 774 1560">
    <defs>
        <linearGradient id="a" x1="48.356%" x2="49.128%" y1="14.305%" y2="89.505%">
            <stop offset="0%" stop-color="#FFF"/>
            <stop offset="100%"/>
        </linearGradient>
    </defs>
    <path fill="url(#a)" fill-rule="nonzero" d="M-271 2414.834c0-63.155 4.07-121.216 12.21-174.185 8.14-52.968 23.404-99.825 45.79-140.57 36.632-67.23 89.035-121.216 157.21-161.961C12.387 1897.372 95.316 1877 193 1877s180.614 20.372 248.79 61.118c68.175 40.745 120.578 94.731 157.21 161.961 22.386 40.745 37.65 87.602 45.79 140.57 8.14 52.97 12.21 111.03 12.21 174.185v510.332c0 63.155-4.07 121.216-12.21 174.185-8.14 52.968-23.404 99.825-45.79 140.57-36.632 67.23-89.035 121.216-157.21 161.961C373.613 3442.628 290.684 3463 193 3463s-180.614-20.372-248.79-61.118c-68.175-40.745-120.578-94.731-157.21-161.961-22.386-40.745-37.65-87.602-45.79-140.57-8.14-52.97-12.21-111.03-12.21-174.185v-510.332zm310.89 558.592c0 58.982 13.68 103.219 41.04 132.71 27.36 29.49 64.346 44.236 110.96 44.236 46.613 0 83.6-14.745 110.96-44.236s41.04-73.728 41.04-132.71v-607.108c0-58.982-13.68-103.218-41.04-132.71-27.36-29.49-64.347-44.236-110.96-44.236-46.614 0-83.6 14.746-110.96 44.237-27.36 29.49-41.04 73.727-41.04 132.71v607.107z" opacity=".1" transform="rotate(20 5552.361 1725)"/>
</svg>
